<svg xmlns="http://www.w3.org/2000/svg" viewBox="0 0 24 24" enable-background="new 0 0 24 24" width="48" height="48" style="fill: rgb(30, 56, 79);">
    <path style="text-indent:0;text-align:start;line-height:normal;text-transform:none;block-progression:tb;-inkscape-font-specification:Bitstream Vera Sans" d="M 12 0 C 5.3844277 0 0 5.3844277 0 12 C 0 18.615572 5.3844277 24 12 24 C 18.615572 24 24 18.615572 24 12 C 24 5.3844277 18.615572 0 12 0 z M 12 2 C 17.534692 2 22 6.4653079 22 12 C 22 14.396641 21.148828 16.592626 19.75 18.3125 L 5.6875 4.25 C 7.407374 2.8511723 9.6033588 2 12 2 z M 4.25 5.6875 L 18.3125 19.75 C 16.592626 21.148828 14.396641 22 12 22 C 6.4653079 22 2 17.534692 2 12 C 2 9.6033588 2.8511723 7.407374 4.25 5.6875 z" color="#000" overflow="visible" enable-background="accumulate" font-family="Bitstream Vera Sans"/>
</svg>