<?xml version="1.0" standalone="no"?>
<!DOCTYPE svg PUBLIC "-//W3C//DTD SVG 20010904//EN"
 "http://www.w3.org/TR/2001/REC-SVG-20010904/DTD/svg10.dtd">
<svg version="1.0" xmlns="http://www.w3.org/2000/svg"
 width="225.000000pt" height="225.000000pt" viewBox="0 0 225.000000 225.000000"
 preserveAspectRatio="xMidYMid meet">
<metadata>
Created by potrace 1.14, written by Peter Selinger 2001-2017
</metadata>
<g transform="translate(0.000000,225.000000) scale(0.100000,-0.100000)"
fill="#000000" stroke="none">
<path d="M1061 2083 c-23 -22 -965 -1636 -1045 -1790 -25 -49 -20 -81 18 -119
l34 -34 1057 0 1057 0 34 34 c23 23 34 43 34 63 0 36 -1016 1804 -1061 1846
-20 19 -40 27 -64 27 -24 0 -44 -8 -64 -27z m487 -1013 c220 -382 404 -703
407 -713 7 -16 -37 -17 -829 -17 -858 0 -860 0 -827 36 5 5 96 160 202 344
106 184 248 432 317 550 68 118 165 286 214 373 79 137 92 155 103 140 6 -10
192 -331 413 -713z"/>
<path d="M1050 1436 c-15 -19 6 -704 22 -723 6 -7 30 -13 53 -13 23 0 47 6 53
13 16 19 37 704 22 723 -9 9 -33 14 -75 14 -42 0 -66 -5 -75 -14z"/>
<path d="M1044 627 c-3 -8 -4 -47 -2 -88 l3 -74 80 0 80 0 0 85 0 85 -78 3
c-59 2 -79 0 -83 -11z"/>
</g>
</svg>
