<?xml version="1.0" standalone="no"?>
<!DOCTYPE svg PUBLIC "-//W3C//DTD SVG 20010904//EN"
 "http://www.w3.org/TR/2001/REC-SVG-20010904/DTD/svg10.dtd">
<svg version="1.0" xmlns="http://www.w3.org/2000/svg"
 width="22.000000pt" height="20.000000pt" viewBox="0 0 22.000000 20.000000"
 preserveAspectRatio="xMidYMid meet">
<metadata>
Created by potrace 1.14, written by Peter Selinger 2001-2017
</metadata>
<g transform="translate(0.000000,20.000000) scale(0.100000,-0.100000)"
fill="#000000" stroke="none">
<path d="M14 189 c-3 -6 11 -28 32 -50 l38 -39 -39 -40 c-30 -31 -36 -43 -27
-52 9 -9 21 -3 52 27 l40 39 38 -37 c55 -54 79 -30 25 25 l-37 38 37 38 c29
30 34 41 25 50 -9 9 -20 4 -50 -25 l-38 -37 -38 37 c-41 40 -47 43 -58 26z"/>
</g>
</svg>
