<svg id="svg" version="1.1" width="500" height="529" xmlns="http://www.w3.org/2000/svg" xmlns:xlink="http://www.w3.org/1999/xlink" style="display: block;"><g id="svgg"><path id="path0" d="" stroke="none" fill="#000000" fill-rule="evenodd"></path><path id="path1" d="M265.000 274.973 C 266.210 275.156,268.190 275.156,269.400 274.973 C 270.610 274.790,269.620 274.640,267.200 274.640 C 264.780 274.640,263.790 274.790,265.000 274.973 " stroke="none" fill="#555555" fill-rule="evenodd"></path><path id="path2" d="M113.874 116.400 C 113.877 119.920,114.018 121.260,114.187 119.379 C 114.356 117.497,114.353 114.617,114.182 112.979 C 114.010 111.340,113.871 112.880,113.874 116.400 " stroke="none" fill="#7f7f7f" fill-rule="evenodd"></path><path id="path3" d="" stroke="none" fill="#007f7f" fill-rule="evenodd"></path><path id="path4" d="M67.614 50.516 C 34.236 53.866,8.621 82.914,8.691 117.336 C 8.708 125.401,9.814 132.295,11.658 135.830 C 12.281 137.023,12.792 138.588,12.795 139.307 C 12.806 142.113,19.400 153.590,24.302 159.336 C 35.574 172.546,48.906 179.905,66.000 182.351 C 68.640 182.729,71.597 183.232,72.570 183.468 C 74.478 183.930,81.682 183.029,91.066 181.153 C 98.230 179.722,107.378 175.937,111.353 172.760 C 112.977 171.462,114.709 170.400,115.201 170.400 C 116.571 170.400,127.711 158.615,130.659 154.048 C 139.112 140.951,143.062 126.458,141.999 112.446 C 141.446 105.164,138.929 93.645,137.716 92.843 C 137.348 92.599,136.824 91.489,136.552 90.376 C 135.593 86.447,128.227 75.531,122.747 69.916 C 108.470 55.288,88.853 48.385,67.614 50.516 M140.000 68.237 C 140.000 68.368,140.725 71.796,141.611 75.856 C 142.497 79.916,143.589 87.819,144.039 93.418 C 144.842 103.433,144.898 103.639,147.443 106.000 C 166.349 123.539,165.203 157.038,144.892 180.600 C 129.806 198.100,113.995 201.911,98.023 191.896 L 92.859 188.658 87.030 189.999 C 79.974 191.621,67.080 191.679,60.600 190.118 C 58.070 189.509,56.000 189.311,56.000 189.680 C 56.000 192.613,75.851 214.400,78.523 214.400 C 78.997 214.400,81.103 215.661,83.203 217.202 C 104.877 233.112,139.417 227.860,162.067 205.210 C 170.739 196.538,170.499 197.170,169.078 186.800 C 167.390 174.484,169.187 149.183,171.890 147.205 C 172.194 146.982,173.107 144.640,173.918 142.000 C 175.873 135.634,181.697 123.599,184.766 119.580 L 187.225 116.360 185.886 112.429 C 185.149 110.267,183.704 107.255,182.673 105.737 C 181.643 104.219,180.800 102.547,180.800 102.021 C 180.800 98.620,167.085 83.176,158.696 77.130 C 152.817 72.894,140.000 66.797,140.000 68.237 M81.600 94.000 L 81.600 110.400 98.000 110.400 L 114.400 110.400 114.400 116.400 L 114.400 122.400 98.000 122.400 L 81.600 122.400 81.600 138.800 L 81.600 155.200 75.617 155.200 L 69.633 155.200 69.417 139.000 L 69.200 122.800 53.000 122.583 L 36.800 122.367 36.800 116.383 L 36.800 110.400 53.200 110.400 L 69.600 110.400 69.600 94.000 L 69.600 77.600 75.600 77.600 L 81.600 77.600 81.600 94.000 M256.400 87.700 C 255.520 87.873,251.822 88.599,248.182 89.313 C 244.542 90.027,241.371 90.924,241.135 91.306 C 240.899 91.688,240.202 92.000,239.587 92.000 C 237.666 92.000,221.666 99.356,219.748 101.121 C 218.744 102.045,216.448 103.770,214.646 104.956 C 209.738 108.184,200.604 117.505,197.098 122.865 C 195.394 125.469,193.558 128.068,193.018 128.639 C 191.110 130.658,186.397 141.596,184.780 147.758 C 183.879 151.191,182.815 154.593,182.416 155.317 C 179.877 159.922,179.795 189.027,182.311 192.370 C 182.655 192.827,183.400 195.360,183.968 198.000 C 190.708 229.343,216.178 260.584,242.669 269.999 C 265.159 277.992,288.281 274.764,308.563 260.799 C 314.277 256.864,328.800 243.072,328.800 241.580 C 328.800 241.153,329.985 239.547,331.434 238.011 C 334.998 234.232,345.116 215.033,347.572 207.389 C 354.700 185.197,354.532 159.402,347.137 140.640 C 342.606 129.146,327.392 109.787,319.000 104.838 C 317.350 103.866,316.000 102.775,316.000 102.416 C 316.000 100.008,291.990 90.181,281.695 88.376 C 275.639 87.314,260.431 86.908,256.400 87.700 M283.937 122.326 C 295.087 125.713,309.073 137.400,314.183 147.600 C 320.666 160.541,324.080 183.035,319.957 185.643 C 319.321 186.046,319.041 186.381,319.335 186.388 C 321.243 186.431,313.038 207.389,308.368 214.400 C 281.807 254.275,243.303 250.669,221.277 206.244 C 196.720 156.715,233.775 107.090,283.937 122.326 M43.391 189.028 C 40.636 190.443,37.396 192.393,36.191 193.361 C 34.986 194.330,32.200 196.527,30.000 198.244 C 17.179 208.248,7.108 224.044,2.209 241.831 C 0.420 248.329,0.400 248.944,0.400 298.400 L 0.400 348.400 2.349 352.400 C 5.417 358.698,7.140 360.598,13.165 364.329 C 21.662 369.589,21.791 369.600,74.039 369.600 L 120.800 369.600 120.800 341.379 C 120.800 310.237,122.298 293.054,125.487 287.600 C 125.744 287.160,126.037 286.440,126.138 286.000 C 127.286 280.965,135.853 262.374,138.292 259.624 C 140.499 257.136,147.200 247.212,147.200 246.433 C 147.200 245.773,134.484 249.626,130.477 251.500 C 127.883 252.714,100.660 252.727,99.122 251.515 C 98.505 251.029,96.338 250.226,94.307 249.731 C 65.802 242.784,45.368 215.093,51.315 191.473 C 52.064 188.498,52.028 187.709,51.115 187.131 C 49.453 186.078,48.848 186.226,43.391 189.028 M179.020 235.142 C 156.861 249.195,140.155 273.751,134.352 300.800 C 133.032 306.954,132.354 382.720,133.551 390.431 C 135.320 401.834,144.685 414.833,154.400 419.370 C 162.977 423.375,160.908 423.309,269.600 423.046 L 371.600 422.800 377.200 420.458 C 385.123 417.143,393.943 408.323,397.258 400.400 L 399.600 394.800 399.826 351.307 C 400.072 304.054,399.866 300.952,395.547 287.091 C 392.455 277.171,381.202 257.128,377.659 255.232 C 376.903 254.827,375.280 253.047,374.053 251.277 C 372.827 249.507,369.973 246.652,367.712 244.933 C 365.450 243.214,362.340 240.664,360.800 239.267 C 358.483 237.165,351.286 232.800,350.138 232.800 C 349.964 232.800,349.631 235.950,349.399 239.800 C 348.963 247.010,345.304 260.318,342.415 265.200 C 341.634 266.520,338.907 272.100,336.355 277.600 C 333.803 283.100,331.468 287.780,331.166 288.000 C 330.863 288.220,328.291 292.540,325.449 297.600 C 322.608 302.660,318.350 309.860,315.987 313.600 C 308.901 324.818,298.336 341.065,296.737 343.200 C 295.913 344.300,293.793 347.307,292.026 349.882 C 290.196 352.548,288.674 354.098,288.491 353.482 C 286.841 347.928,279.225 310.948,279.206 308.397 C 279.203 307.955,281.540 305.171,284.400 302.211 C 291.404 294.962,291.456 293.214,284.859 286.922 L 280.119 282.400 267.620 282.400 C 253.430 282.400,252.590 282.646,247.359 288.321 C 242.336 293.769,242.903 296.150,251.017 303.684 L 255.234 307.600 253.218 317.200 C 252.109 322.480,249.893 333.183,248.292 340.985 L 245.382 355.170 243.077 351.785 C 240.052 347.343,231.019 333.826,226.075 326.342 C 223.916 323.074,221.280 318.844,220.216 316.942 C 219.153 315.040,217.739 312.880,217.074 312.142 C 216.408 311.404,214.068 307.560,211.874 303.600 C 209.680 299.640,207.247 295.500,206.467 294.400 C 196.703 280.632,184.000 247.572,184.000 235.930 C 184.000 232.180,183.752 232.141,179.020 235.142 " stroke="none" fill="#3d556c" fill-rule="evenodd"></path></g></svg>