<?xml version="1.0" encoding="iso-8859-1"?>
<!-- Generator: Adobe Illustrator 18.0.0, SVG Export Plug-In . SVG Version: 6.00 Build 0)  -->
<!DOCTYPE svg PUBLIC "-//W3C//DTD SVG 1.1//EN" "http://www.w3.org/Graphics/SVG/1.1/DTD/svg11.dtd">
<svg xmlns="http://www.w3.org/2000/svg" xmlns:xlink="http://www.w3.org/1999/xlink" version="1.1" id="Capa_1" x="0px" y="0px" viewBox="0 0 59.996 59.996" style="enable-background:new 0 0 59.996 59.996;" xml:space="preserve" width="512px" height="512px">
<g>
	<path d="M58.822,14.873l-3.326-5.374l-3.363,5.442c-1.571,3.046-1.51,5.449,0.182,7.141c0.85,0.85,1.98,1.318,3.182,1.318   c1.202,0,2.332-0.468,3.182-1.318C60.38,20.378,60.438,17.482,58.822,14.873z" fill="#3d556c"/>
	<path d="M31.879,37.83l-2.829-2.829l-7.778,7.778l-1.414-1.414l7.778-7.778l-2.829-2.829l-7.778,7.778l-1.414-1.414l0,0l0,0l0,0   l7.778-7.778l-2.828-2.828l-7.07,7.07c-0.246,0.246-0.434,0.532-0.579,0.837l-2.25-2.25c-0.391-0.391-1.023-0.391-1.414,0   s-0.391,1.023,0,1.414l4.95,4.95l-4.295,4.295c-0.645-0.167-1.312-0.262-1.996-0.262c-2.114,0-4.102,0.823-5.596,2.318   c-3.086,3.086-3.086,8.106,0,11.192c1.495,1.495,3.482,2.318,5.596,2.318s4.102-0.823,5.596-2.318   c2.053-2.053,2.732-4.962,2.053-7.589l4.299-4.299l4.95,4.95c0.195,0.195,0.451,0.293,0.707,0.293s0.512-0.098,0.707-0.293   c0.391-0.391,0.391-1.023,0-1.414l-2.25-2.25c0.305-0.145,0.591-0.333,0.837-0.579L31.879,37.83z M12.093,54.667   c-1.117,1.117-2.603,1.732-4.182,1.732s-3.065-0.615-4.182-1.732s-1.732-2.603-1.732-4.182s0.615-3.065,1.732-4.182   s2.603-1.732,4.182-1.732c0.573,0,1.133,0.083,1.668,0.24l0.281,0.098c0.415,0.145,0.805,0.331,1.169,0.556   c0.016,0.01,0.032,0.019,0.048,0.029c0.155,0.098,0.304,0.206,0.449,0.318c0.03,0.023,0.061,0.043,0.09,0.067   c0.165,0.133,0.325,0.274,0.476,0.425s0.293,0.311,0.425,0.476c0.024,0.029,0.044,0.061,0.067,0.09   c0.112,0.145,0.22,0.294,0.318,0.449c0.01,0.016,0.019,0.032,0.029,0.048c0.224,0.364,0.411,0.754,0.556,1.169l0.098,0.281   c0.156,0.535,0.24,1.095,0.24,1.668C13.825,52.065,13.21,53.55,12.093,54.667z M14.738,46.486   c-0.019-0.033-0.044-0.062-0.064-0.095c-0.125-0.206-0.26-0.406-0.405-0.602c-0.049-0.066-0.095-0.134-0.146-0.199   c-0.191-0.242-0.393-0.478-0.616-0.701c-0.222-0.222-0.458-0.425-0.701-0.617c-0.057-0.045-0.116-0.086-0.174-0.129   c-0.216-0.161-0.438-0.311-0.668-0.448c-0.019-0.011-0.036-0.026-0.055-0.037l3.706-3.707l2.829,2.829L14.738,46.486z" fill="#3d556c"/>
	<path d="M46.025,13.792L56.605,3.306C56.998,2.918,57,2.284,56.612,1.892c-0.389-0.392-1.021-0.394-1.415-0.006L44.61,12.377   l-2.83-2.831c-1.134-1.134-3.111-1.133-4.245,0L21.98,25.102l2.828,2.828l5.657,5.657l2.829,2.829L48.849,20.86   c0.567-0.567,0.879-1.321,0.879-2.123c0-0.801-0.313-1.555-0.879-2.122L46.025,13.792z M31.526,24.041   c-0.586,0.586-1.536,0.586-2.121,0c-0.586-0.586-0.586-1.536,0-2.121c0.586-0.586,1.536-0.586,2.121,0   C32.112,22.506,32.112,23.455,31.526,24.041z M35.061,19.091c0.586-0.586,1.536-0.586,2.121,0c0.586,0.586,0.586,1.536,0,2.121   c-0.586,0.586-1.536,0.586-2.121,0C34.475,20.627,34.475,19.677,35.061,19.091z M37.89,27.577c-0.586,0.586-1.536,0.586-2.121,0   c-0.586-0.586-0.586-1.536,0-2.121c0.586-0.586,1.536-0.586,2.121,0C38.475,26.041,38.475,26.991,37.89,27.577z M38.597,16.263   c-0.586-0.586-0.586-1.536,0-2.121c0.586-0.586,1.536-0.586,2.121,0c0.586,0.586,0.586,1.536,0,2.121   C40.132,16.849,39.183,16.849,38.597,16.263z M42.839,22.627c-0.586,0.586-1.536,0.586-2.121,0c-0.586-0.586-0.586-1.536,0-2.121   c0.586-0.586,1.536-0.586,2.121,0C43.425,21.091,43.425,22.041,42.839,22.627z" fill="#3d556c"/>
</g>
<g>
</g>
<g>
</g>
<g>
</g>
<g>
</g>
<g>
</g>
<g>
</g>
<g>
</g>
<g>
</g>
<g>
</g>
<g>
</g>
<g>
</g>
<g>
</g>
<g>
</g>
<g>
</g>
<g>
</g>
</svg>
