<?xml version="1.0" encoding="utf-8"?>
<!-- Generator: Adobe Illustrator 21.0.2, SVG Export Plug-In . SVG Version: 6.00 Build 0)  -->
<svg version="1.1" id="Layer_1" xmlns="http://www.w3.org/2000/svg" xmlns:xlink="http://www.w3.org/1999/xlink" x="0px" y="0px"
	 viewBox="0 0 70 70" style="enable-background:new 0 0 70 70;" xml:space="preserve">
<style type="text/css">
	.st0{fill:none;}
	.st1{fill:#3D556C;}
</style>
<g>
	<rect class="st0" width="70" height="70"/>
	<path class="st1" d="M62,21H45v-1h12v-2H45v-2c0-2.2-1.8-4-4-4H29c-2.2,0-4,1.8-4,4v2H13v2h12v1H8c-1.1,0-2,0.9-2,2v30
		c0,1.1,0.9,2,2,2h7v2h8v-2h24v2h8v-2h7c1.1,0,2-0.9,2-2V23C64,21.9,63.1,21,62,21z M45,41h-8v8h-4v-8h-8v-4h8v-8h4v8h8V41z M29,20
		v-2v-2h12v2v2v1H29V20z M10,25h2v26h-2V25z M60,51h-2V25h2V51z"/>
</g>
</svg>
