<?xml version="1.0" encoding="utf-8"?>
<!-- Generator: Adobe Illustrator 21.0.2, SVG Export Plug-In . SVG Version: 6.00 Build 0)  -->
<svg version="1.1" id="Layer_1" xmlns="http://www.w3.org/2000/svg" xmlns:xlink="http://www.w3.org/1999/xlink" x="0px" y="0px"
	 viewBox="0 0 48 48" style="enable-background:new 0 0 48 48;" xml:space="preserve">
<style type="text/css">
	.st0{fill:none;}
	.st1{fill:#576B86;}
	.st2{fill:#3D556C;}
</style>
<g>
	<g>
		<g>
			<rect x="0" class="st0" width="48" height="48"/>
		</g>
	</g>
	<g>
		<path class="st1" d="M37,11v26H11V11H37 M37,9H11c-1.1,0-2,0.9-2,2v26c0,1.1,0.9,2,2,2h26c1.1,0,2-0.9,2-2V11C39,9.9,38.1,9,37,9
			L37,9z"/>
	</g>
	<g>
		<path class="st2" d="M22.5,33c-0.5,0-0.9-0.2-1.2-0.6c-1.1-1.4-4.1-5.1-4.9-5.9c-0.6-0.6-0.6-1.5,0-2.1c0.6-0.6,1.5-0.6,2.1,0
			c0.6,0.6,2.2,2.5,3.4,4c1.1-2.8,3.4-7.6,7.3-12.9c0.5-0.7,1.4-0.8,2.1-0.3c0.7,0.5,0.8,1.4,0.3,2.1C26,25.1,24,31.8,23.9,31.9
			c-0.2,0.5-0.6,0.9-1.1,1.1C22.7,33,22.6,33,22.5,33z"/>
	</g>
</g>
</svg>
