<?xml version="1.0" encoding="utf-8"?>
<!-- Generator: Adobe Illustrator 21.0.2, SVG Export Plug-In . SVG Version: 6.00 Build 0)  -->
<svg version="1.1" id="Layer_1" xmlns="http://www.w3.org/2000/svg" xmlns:xlink="http://www.w3.org/1999/xlink" x="0px" y="0px"
	 viewBox="0 0 48 48" style="enable-background:new 0 0 48 48;" xml:space="preserve">
<style type="text/css">
	.st0{fill:none;}
	.st1{fill:#3D556C;}
</style>
<g>
	<g>
		<g>
			<rect x="0" class="st0" width="48" height="48"/>
		</g>
	</g>
</g>
<g>
	<g>
		<path class="st1" d="M36,11h-6c-0.5,0-1,0.5-1,1v2h-1v-2c0-0.5-0.5-1-1-1h-6c-0.5,0-1,0.5-1,1v2h-1v-2c0-0.5-0.5-1-1-1h-6
			c-0.5,0-1,0.5-1,1v2c-1.1,0-2,0.9-2,2v20c0,1.1,0.9,2,2,2h26c1.1,0,2-0.9,2-2V16c0-1.1-0.9-2-2-2v-2C37,11.5,36.5,11,36,11L36,11z
			 M13,34V18h22v16H13L13,34z"/>
	</g>
	<g>
		<path class="st1" d="M25,21h-2c-0.5,0-1,0.5-1,1v2c0,0.5,0.5,1,1,1h2c0.5,0,1-0.5,1-1v-2C26,21.5,25.5,21,25,21L25,21z"/>
	</g>
	<g>
		<path class="st1" d="M25,27h-2c-0.5,0-1,0.5-1,1v2c0,0.5,0.5,1,1,1h2c0.5,0,1-0.5,1-1v-2C26,27.5,25.5,27,25,27L25,27z"/>
	</g>
	<g>
		<path class="st1" d="M31,27h-2c-0.5,0-1,0.5-1,1v2c0,0.5,0.5,1,1,1h2c0.5,0,1-0.5,1-1v-2C32,27.5,31.5,27,31,27L31,27z"/>
	</g>
	<g>
		<path class="st1" d="M31,21h-2c-0.5,0-1,0.5-1,1v2c0,0.5,0.5,1,1,1h2c0.5,0,1-0.5,1-1v-2C32,21.5,31.5,21,31,21L31,21z"/>
	</g>
	<g>
		<path class="st1" d="M19,21h-2c-0.5,0-1,0.5-1,1v2c0,0.5,0.5,1,1,1h2c0.5,0,1-0.5,1-1v-2C20,21.5,19.5,21,19,21L19,21z"/>
	</g>
	<g>
		<path class="st1" d="M19,27h-2c-0.5,0-1,0.5-1,1v2c0,0.5,0.5,1,1,1h2c0.5,0,1-0.5,1-1v-2C20,27.5,19.5,27,19,27L19,27z"/>
	</g>
</g>
</svg>
