<?xml version="1.0" encoding="utf-8"?>
<!-- Generator: Adobe Illustrator 21.0.2, SVG Export Plug-In . SVG Version: 6.00 Build 0)  -->
<svg version="1.1" id="Layer_1" xmlns="http://www.w3.org/2000/svg" xmlns:xlink="http://www.w3.org/1999/xlink" x="0px" y="0px"
	 viewBox="0 0 48 48" style="enable-background:new 0 0 48 48;" xml:space="preserve">
<style type="text/css">
	.st0{fill:none;}
	.st1{fill:#3D556C;}
</style>
<g>
	<g>
		<rect class="st0" width="48" height="48"/>
	</g>
</g>
<g>
	<path class="st1" d="M36,18l-6,6h4c0,1.4-0.3,2.7-0.8,3.9c-0.5,1.2-1.2,2.3-2.1,3.2c-0.9,0.9-2,1.6-3.2,2.1c-2.5,1-5.3,1-7.8,0
		c-1.2-0.5-2.3-1.2-3.2-2.1l-2.8,2.8c1.3,1.3,2.8,2.3,4.4,3c1.7,0.7,3.6,1.1,5.4,1.1s3.7-0.4,5.5-1.1c1.7-0.7,3.2-1.7,4.4-3
		s2.3-2.8,3-4.4c0.7-1.7,1.1-3.6,1.1-5.4h4L36,18z"/>
	<path class="st1" d="M18,24h-4c0-1.4,0.3-2.7,0.8-3.9c0.5-1.2,1.2-2.3,2.1-3.2c0.9-0.9,2-1.6,3.2-2.1c2.5-1,5.3-1,7.8,0
		c1.2,0.5,2.3,1.2,3.2,2.1l2.8-2.8c-1.3-1.3-2.8-2.3-4.4-3c-3.5-1.5-7.4-1.5-10.9,0c-1.7,0.7-3.2,1.7-4.4,3s-2.3,2.8-3,4.4
		C10.4,20.3,10,22.1,10,24H6l3,3l3,3l3-3L18,24z"/>
</g>
</svg>
