<?xml version="1.0" encoding="utf-8"?>
<!-- Generator: Adobe Illustrator 21.0.2, SVG Export Plug-In . SVG Version: 6.00 Build 0)  -->
<svg version="1.1" id="Layer_1" xmlns="http://www.w3.org/2000/svg" xmlns:xlink="http://www.w3.org/1999/xlink" x="0px" y="0px"
	 viewBox="0 0 48 48" style="enable-background:new 0 0 48 48;" xml:space="preserve">
<style type="text/css">
	.st0{fill:none;}
	.st1{fill:#EBEBEB;}
	.st2{fill:#576B86;}
	.st3{fill:#1D374E;}
</style>
<g>
	<g>
		<rect x="0" y="0" class="st0" width="48" height="48"/>
	</g>
	<g>
		<path class="st1" d="M24,39c-8.3,0-15-6.7-15-15S15.7,9,24,9s15,6.7,15,15S32.3,39,24,39z"/>
		<path class="st2" d="M24,10c7.7,0,14,6.3,14,14c0,7.7-6.3,14-14,14c-7.7,0-14-6.3-14-14C10,16.3,16.3,10,24,10 M24,8L24,8
			C15.2,8,8,15.2,8,24v0c0,8.8,7.2,16,16,16h0c8.8,0,16-7.2,16-16v0C40,15.2,32.8,8,24,8L24,8z"/>
	</g>
	<path class="st3" d="M24,30L24,30c-3.3,0-6-2.7-6-6v0c0-3.3,2.7-6,6-6h0c3.3,0,6,2.7,6,6v0C30,27.3,27.3,30,24,30z"/>
</g>
</svg>
