<?xml version="1.0" encoding="utf-8"?>
<!-- Generator: Adobe Illustrator 21.0.2, SVG Export Plug-In . SVG Version: 6.00 Build 0)  -->
<svg version="1.1" id="Layer_1" xmlns="http://www.w3.org/2000/svg" xmlns:xlink="http://www.w3.org/1999/xlink" x="0px" y="0px"
	 viewBox="0 0 70 70" style="enable-background:new 0 0 70 70;" xml:space="preserve">
<style type="text/css">
	.st0{fill:none;}
	.st1{fill:#3D556C;}
</style>
<g>
	<rect class="st0" width="70" height="70"/>
	<path class="st1" d="M41,53c0-6.6,5.4-12,12-12c1.8,0,3.5,0.4,5,1.1V25h2v18.3c1.7,1.3,3.1,3,4,4.9V23c0-1.1-0.9-2-2-2H45v-1h12v-2
		H45v-2c0-2.2-1.8-4-4-4H29c-2.2,0-4,1.8-4,4v2H13v2h12v1H8c-1.1,0-2,0.9-2,2v30c0,1.1,0.9,2,2,2h7v2h8v-2h18.2
		C41.1,54.3,41,53.7,41,53z M12,51h-2V25h2V51z M29,20v-2v-2h12v2v2v1H29V20z"/>
	<g>
		<path class="st1" d="M53,43c-5.5,0-10,4.5-10,10s4.5,10,10,10c5.5,0,10-4.5,10-10S58.5,43,53,43z M54,59h-2v-9h2V59z M54,49h-2v-2
			h2V49z"/>
	</g>
</g>
</svg>
