<?xml version="1.0" encoding="utf-8"?>
<!-- Generator: Adobe Illustrator 21.0.2, SVG Export Plug-In . SVG Version: 6.00 Build 0)  -->
<svg version="1.1" id="Layer_1" xmlns="http://www.w3.org/2000/svg" xmlns:xlink="http://www.w3.org/1999/xlink" x="0px" y="0px"
	 viewBox="0 0 70 70" style="enable-background:new 0 0 70 70;" xml:space="preserve">
<style type="text/css">
	.st0{fill:none;}
	.st1{fill:#3D556C;}
</style>
<g>
	<rect class="st0" width="70" height="70"/>
	<g>
		<path class="st1" d="M62,21H45v-1h12v-2H45v-2c0-2.2-1.8-4-4-4H29c-2.2,0-4,1.8-4,4v2H13v2h12v1H8c-1.1,0-2,0.9-2,2v30
			c0,1.1,0.9,2,2,2h7v2h8v-2h24v2c0,0,9,0,9.5,0c0.8,0,1.6-0.3,2.1-0.9l1.1-1.1H62c1.1,0,2-0.9,2-2V23C64,21.9,63.1,21,62,21z
			 M12,51h-2V25h2V51z M60,25v25.2l-2-2V25H60z M29,20v-2v-2h12v2v2v1H29V20z M55.8,54.7l-5.6-5.6c0,0,0,0,0,0
			C48.4,50.3,46.3,51,44,51c-6.1,0-11-4.9-11-11s4.9-11,11-11s11,4.9,11,11c0,2.3-0.7,4.4-1.9,6.2l5.6,5.6c0.4,0.4,0.4,1,0,1.4
			l-1.5,1.5C57,54.9,56.7,55,56.5,55C56.2,55,56,54.9,55.8,54.7z"/>
		<circle class="st1" cx="44" cy="40" r="8"/>
	</g>
</g>
</svg>
