<?xml version="1.0" encoding="utf-8"?>
<!-- Generator: Adobe Illustrator 21.0.2, SVG Export Plug-In . SVG Version: 6.00 Build 0)  -->
<svg version="1.1" id="Layer_1" xmlns="http://www.w3.org/2000/svg" xmlns:xlink="http://www.w3.org/1999/xlink" x="0px" y="0px"
	 viewBox="0 0 70 70" style="enable-background:new 0 0 70 70;" xml:space="preserve">
<style type="text/css">
	.st0{fill:none;}
	.st1{fill:#3D556C;}
</style>
<g>
	<rect class="st0" width="70" height="70"/>
	<path class="st1" d="M47,8H13c-1.1,0-2,0.9-2,2v52c0,1.1,0.9,2,2,2h44c1.1,0,2-0.9,2-2V20C59,13.4,53.6,8,47,8z M46,19
		c0-0.5,0.5-1,1-1h4c0.5,0,1,0.5,1,1v1c0,0.5-0.5,1-1,1h-4c-0.5,0-1-0.5-1-1V19z M46,33c0-0.5,0.5-1,1-1h4c0.5,0,1,0.5,1,1v1
		c0,0.5-0.5,1-1,1h-4c-0.5,0-1-0.5-1-1V33z M29,21h10v2H29V21z M29,35h10v2H29V35z M27,53c0,1.1-0.9,2-2,2h-5c-1.1,0-2-0.9-2-2v-5
		c0-1.1,0.9-2,2-2h5c1.1,0,2,0.9,2,2V53z M27,39c0,1.1-0.9,2-2,2h-5c-1.1,0-2-0.9-2-2v-5c0-1.1,0.9-2,2-2h5c1.1,0,2,0.9,2,2V39z
		 M27,25c0,1.1-0.9,2-2,2h-5c-1.1,0-2-0.9-2-2v-5c0-1.1,0.9-2,2-2h5c1.1,0,2,0.9,2,2V25z M39,51H29v-2h10V51z M44,48H29v-2h15V48z
		 M44,34H29v-2h15V34z M44,20H29v-2h15V20z M46,48v-1c0-0.5,0.5-1,1-1h4c0.5,0,1,0.5,1,1v1c0,0.5-0.5,1-1,1h-4
		C46.5,49,46,48.5,46,48z M57,61c0,0.6-0.4,1-1,1h-8c-0.6,0-1-0.4-1-1s0.4-1,1-1h6c0.6,0,1-0.4,1-1v-6c0-0.6,0.4-1,1-1s1,0.4,1,1V61
		z"/>
</g>
</svg>
