<?xml version="1.0" encoding="utf-8"?>
<!-- Generator: Adobe Illustrator 21.0.2, SVG Export Plug-In . SVG Version: 6.00 Build 0)  -->
<svg version="1.1" id="Layer_1" xmlns="http://www.w3.org/2000/svg" xmlns:xlink="http://www.w3.org/1999/xlink" x="0px" y="0px"
	 viewBox="0 0 70 70" style="enable-background:new 0 0 70 70;" xml:space="preserve">
<style type="text/css">
	.st0{fill:none;}
	.st1{fill:#3D556C;}
</style>
<g>
	<rect class="st0" width="70" height="70"/>
	<path class="st1" d="M41,53c0-6.5,5.2-11.8,11.7-12c-1.4-0.5-2.9-0.9-4.9-1.8c-0.8-0.4-1.6-0.6-2.3-0.9c-3.1-1.5-3.6-3.1-3.6-3.1
		c0-0.3-0.2-0.5-0.5-0.5h-0.9c-0.3,0-0.2-1.3-0.2-2.4c0.7-0.2,1.6-0.2,3.2-0.1c2.8,0.2,3.7-2.4,3.3-5c-0.9-5.6-2.1-6.7-2.1-12.6
		c0-0.5-0.2-1.8-0.1-1.4c0.1,0.2,1.2,0.1,2.4,1.4c-1-2.1-1.7-1.8-2.7-3.2c-0.1-0.2-1.1-1.3-0.2-0.7c0.5,0.4,1.7,0.9,2.9,1.5
		c-2.3-3.5-5.8-4.7-5.9-4.7c0,0-1-0.3-1.5-0.4c-3.1-0.5-6.1,0.2-6.7,0.4c-7.5,2-8.1,7.5-9.4,15.2c-1.1,6.8-1.1,10.3,6.2,9.5
		c0,1.1,0.1,2.4-0.2,2.4h-0.9c-0.3,0-0.5,0.2-0.5,0.5c0,0-0.6,1.7-3.6,3.1c-0.7,0.3-1.5,0.5-2.3,0.9c-4.8,2.1-7.4,1.9-9.8,4.8
		c-2.2,2.6-2.6,10-3.3,12.9c-0.7,2.6,3.3,4,7.5,4.9c0.2,0,2.6-5.7,2.6-5.7c0,0,0,0,0,0l0.1-0.2c0.1-0.4,0.7-0.3,0.7,0.1
		c0.1,2,0.2,4.9,0.6,6.8C23.5,63.2,29.2,64,35,64c4.3,0,8.6-0.4,11.6-0.8C43.3,61,41,57.3,41,53z"/>
	<g>
		<path class="st1" d="M53,43c-5.5,0-10,4.5-10,10s4.5,10,10,10c5.5,0,10-4.5,10-10S58.5,43,53,43z M59,54h-5v5h-2v-5h-5v-2h5v-5h2
			v5h5V54z"/>
	</g>
</g>
</svg>
