<svg version="1.1" xmlns="http://www.w3.org/2000/svg" x="0px" y="0px"
     viewBox="0 0 70 70" height="70" width="70">
    <g>
        <path d="M60.9,56.9C60.1,54,59.8,46.6,57.6,44c-2.4-2.9-5-2.6-9.8-4.8c-0.8-0.4-1.6-0.6-2.3-0.9
	c-3.1-1.5-3.6-3.1-3.6-3.1c0-0.3-0.2-0.5-0.5-0.5h-0.9c-0.3,0-0.2-1.4-0.2-2.6c0,0,0.7-2.9,2.1-3.6s2.2-2.3,2.4-3.1
	c0.2-1,0.5-2.1,0.2-2.9c-0.1-0.4-0.4-0.5-0.7-0.6c0.1-1.2,0-4.4,0-5.8c-0.1-3.2-1.7-5-3.1-6c-0.7-0.5-2.3-1.6-6.2-1.7
	c-1.4-0.4-3.2-1.3-4-2.4c-0.6-0.8-0.2,2.6-0.5,2.6c-0.5,0-1-0.2-1.9-0.2c-1.3,0,1.1,1.5,0.2,1.9c-2.6,1.3-3.1,4.3-3.1,5.5
	c0,1.2,0,4.6,0,6c-0.3,0.1-0.6,0.3-0.7,0.6c-0.2,0.7,0,1.9,0.2,2.9c0.2,0.8,1,2.4,2.4,3.1s2.1,3.6,2.1,3.6c0,1.2,0.1,2.6-0.2,2.6
	h-0.9c-0.3,0-0.5,0.2-0.5,0.5c0,0-0.6,1.7-3.6,3.1c-0.7,0.3-1.5,0.5-2.3,0.9c-4.8,2.1-7.4,1.9-9.8,4.8c-2.2,2.6-2.6,10-3.3,12.9
	c-0.7,2.6,3.3,4,7.5,4.9c0.6,0.1,2.5-6.8,2.8-5.6c0.2,0.8-0.3,6.4,0.2,6.5C21.7,63,28.4,64,35,64c6.6,0,13.3-1,15.5-1.4
	c0.5-0.1,0-5.7,0.2-6.5c0.2-1.2,2.2,5.8,2.8,5.6C57.6,60.9,61.6,59.5,60.9,56.9z"/>
    </g>
</svg>
