<?xml version="1.0" encoding="utf-8"?>
<!-- Generator: Adobe Illustrator 21.0.2, SVG Export Plug-In . SVG Version: 6.00 Build 0)  -->
<svg version="1.1" id="Layer_1" xmlns="http://www.w3.org/2000/svg" xmlns:xlink="http://www.w3.org/1999/xlink" x="0px" y="0px"
	 viewBox="0 0 70 70" style="enable-background:new 0 0 70 70;" xml:space="preserve">
<style type="text/css">
	.st0{opacity:0.5;fill:none;}
	.st1{fill:#3D556C;}
</style>
<g>
	<rect class="st0" width="70" height="70"/>
	<g>
		<path class="st1" d="M56,14h-7.8c0.5,0.3,0.8,0.6,0.8,1s-0.3,0.7-0.8,1H55c0.5,0,1,0.5,1,1v44c0,0.5-0.5,1-1,1H15
			c-0.6,0-1-0.5-1-1V17c0-0.5,0.4-1,1-1h6.8c-0.5-0.3-0.8-0.6-0.8-1s0.3-0.7,0.8-1H14c-1.1,0-2,0.9-2,2v46c0,1.1,0.9,2,2,2h42
			c1.1,0,2-0.9,2-2V16C58,14.9,57.1,14,56,14z"/>
		<path class="st1" d="M15,17.5v43c0,0.3,0.2,0.5,0.5,0.5h39c0.3,0,0.5-0.2,0.5-0.5v-43c0-0.3-0.2-0.5-0.5-0.5h-9.1
			c-2.6,0.6-6.3,1-10.4,1s-7.9-0.4-10.4-1h-9.1C15.2,17,15,17.2,15,17.5z M39,55h-8v-2h8V55z M43,51H27v-2h16V51z M19,32h6.4
			l3.7-7.3l5.9,12.8L41,22.2l3.7,9.8H51v2h-7.7L41,27.8l-5.9,14.8L29,29.3L26.6,34H19V32z M19,45h32v2H19V45z"/>
		<path class="st1" d="M42,9h-2c0-2.8-2.2-5-5-5s-5,2.2-5,5h-2c-1.1,0-2,0.9-2,2v4c0,0.6,0.4,1,1,1h1.6c0.3,0,0.6-0.2,0.8-0.4
			c0.9-1.3,3-1.6,5.6-1.6c2.5,0,4.7,0.2,5.6,1.6c0.2,0.3,0.5,0.4,0.8,0.4H43c0.6,0,1-0.4,1-1v-4C44,9.9,43.1,9,42,9z M32,9
			c0-1.7,1.3-3,3-3c1.7,0,3,1.3,3,3c0,1.7-1.3,3-3,3C33.3,12,32,10.7,32,9z"/>
	</g>
</g>
</svg>
