<svg xmlns="http://www.w3.org/2000/svg" x="0px" y="0px"
     viewBox="0 0 70 70" width="70" height="70">
    <g>
        <path class="st1" d="M64,16H6c-1.1,0-2,0.9-2,2v38c0,1.1,0.9,2,2,2h58c1.1,0,2-0.9,2-2V18C66,16.9,65.1,16,64,16z M17.5,20
		c0.8,0,1.5,0.7,1.5,1.5S18.3,23,17.5,23S16,22.3,16,21.5S16.7,20,17.5,20z M13.5,20c0.8,0,1.5,0.7,1.5,1.5S14.3,23,13.5,23
		S12,22.3,12,21.5S12.7,20,13.5,20z M9.5,20c0.8,0,1.5,0.7,1.5,1.5S10.3,23,9.5,23S8,22.3,8,21.5S8.7,20,9.5,20z M64,56H6V25h58V56z
		"/>
        <path class="st1" d="M14.7,35.2h1.7v8h4v1.5h-5.7V35.2z"/>
        <path class="st1" d="M26.2,35c3-0.1,5.1,1.9,5.1,5c0,3-2.1,5-5.1,5c-2.9,0-5-2-5-5C21.1,37,23.2,35,26.2,35z M26.2,43.5
		c2,0,3.3-1.5,3.3-3.5c0-1.9-1.3-3.4-3.3-3.4c-2,0-3.3,1.5-3.3,3.4C22.9,42,24.2,43.5,26.2,43.5z"/>
        <path class="st1" d="M32.8,35.2h1.7v9.5h-1.7V35.2z"/>
        <path class="st1" d="M36.6,35.2h2.2l4.6,7.1h0v-7.1h1.7v9.5H43l-4.7-7.3h0v7.3h-1.7V35.2z"/>
        <path class="st1" d="M53.8,37.5c-0.7-0.7-1.3-0.9-2-0.9c-2,0-3.3,1.5-3.3,3.4c0,2,1.3,3.5,3.3,3.5c0.8,0,1.5-0.3,2.1-1.2l1.4,1
		c-0.9,1.2-2.2,1.7-3.5,1.7c-2.9,0-5-2-5-5c0-3.1,2.1-5,5-5c1.3,0,2.4,0.4,3.3,1.5L53.8,37.5z"/>
    </g>
</svg>
