<svg xmlns="http://www.w3.org/2000/svg" x="0px" y="0px"
     viewBox="0 0 70 70" width="70" height="70">
    <g>
        <polygon class="st0" points="18,42.3 14,40 18,37.7 18,36 12,39.4 12,40.6 18,44 		"/>
        <polygon class="st0" points="58,39.4 52,36 52,37.7 56,40 52,42.3 52,44 58,40.6 		"/>
        <path class="st0" d="M64,16H6c-1.1,0-2,0.9-2,2v38c0,1.1,0.9,2,2,2h58c1.1,0,2-0.9,2-2V18C66,16.9,65.1,16,64,16z M17.5,20
			c0.8,0,1.5,0.7,1.5,1.5S18.3,23,17.5,23S16,22.3,16,21.5S16.7,20,17.5,20z M13.5,20c0.8,0,1.5,0.7,1.5,1.5S14.3,23,13.5,23
			S12,22.3,12,21.5S12.7,20,13.5,20z M9.5,20c0.8,0,1.5,0.7,1.5,1.5S10.3,23,9.5,23S8,22.3,8,21.5S8.7,20,9.5,20z M64,56H6V25h58V56
			z"/>
        <rect x="24.2" y="35.2" class="st0" width="1.7" height="9.5"/>
        <path class="st0" d="M32.5,45c1.4,0,2.7-0.5,3.5-1.7l-1.4-1c-0.6,0.8-1.4,1.2-2.1,1.2c-2,0-3.3-1.5-3.3-3.5c0-1.9,1.3-3.4,3.3-3.4
			c0.7,0,1.3,0.2,2,0.9l1.3-1c-0.9-1.1-2-1.5-3.3-1.5c-2.9,0-5,2-5,5C27.5,43,29.6,45,32.5,45z"/>
        <path class="st0" d="M45.8,40c0-3.2-2.3-4.8-4.8-4.8h-3.8v9.5h3.5C43,44.8,45.8,43.3,45.8,40z M38.9,43.2v-6.5h1.5
			c2.1,0,3.6,0.9,3.6,3.2c0,2.3-1.7,3.2-3.9,3.2H38.9z"/>
    </g>
</svg>
