<svg xmlns="http://www.w3.org/2000/svg" x="0px" y="0px"
	 viewBox="0 0 70 70" width="70" height="70">
<g>
	<polygon class="st1" points="18,42.3 14,40 18,37.7 18,36 12,39.4 12,40.6 18,44 	"/>
	<polygon class="st1" points="58,39.4 52,36 52,37.7 56,40 52,42.3 52,44 58,40.6 	"/>
	<path class="st1" d="M64,16H6c-1.1,0-2,0.9-2,2v38c0,1.1,0.9,2,2,2h58c1.1,0,2-0.9,2-2V18C66,16.9,65.1,16,64,16z M17.5,20
		c0.8,0,1.5,0.7,1.5,1.5S18.3,23,17.5,23S16,22.3,16,21.5S16.7,20,17.5,20z M13.5,20c0.8,0,1.5,0.7,1.5,1.5S14.3,23,13.5,23
		S12,22.3,12,21.5S12.7,20,13.5,20z M9.5,20c0.8,0,1.5,0.7,1.5,1.5S10.3,23,9.5,23S8,22.3,8,21.5S8.7,20,9.5,20z M64,56H6V25h58V56z
		"/>
	<path class="st1" d="M29.8,37.5c-0.7-0.7-1.3-0.9-2-0.9c-2,0-3.3,1.5-3.3,3.4c0,2,1.3,3.5,3.3,3.5c0.8,0,1.5-0.3,2.1-1.2l1.4,1
		c-0.9,1.2-2.2,1.7-3.5,1.7c-2.9,0-5-2-5-5c0-3.1,2.1-5,5-5c1.3,0,2.4,0.4,3.3,1.5L29.8,37.5z"/>
	<path class="st1" d="M32.5,35.2h3.2c1.8,0,3.5,0.6,3.5,2.8c0,2.4-1.8,2.8-3.8,2.8h-1.2v3.9h-1.7V35.2z M35.2,39.4
		c1,0,2.2-0.1,2.2-1.3c0-1.2-1.1-1.3-2-1.3h-1.2v2.7H35.2z"/>
	<path class="st1" d="M42.6,36.8h-2.9v-1.5h7.5v1.5h-2.9v8h-1.7V36.8z"/>
</g>
</svg>
