<?xml version="1.0" encoding="utf-8"?>
<!-- Generator: Adobe Illustrator 19.2.1, SVG Export Plug-In . SVG Version: 6.00 Build 0)  -->
<svg version="1.1" id="SNOMED_1_" xmlns="http://www.w3.org/2000/svg" xmlns:xlink="http://www.w3.org/1999/xlink" x="0px" y="0px"
	 viewBox="0 0 61.9 42" style="enable-background:new 0 0 61.9 42;" xml:space="preserve">
<style type="text/css">
	.st0{fill:#3D556C;}
</style>
<g id="SNOMED">
	<g>
		<path class="st0" d="M10.5,13.7c0.6,0,1.1-0.5,1.1-1.1c0-0.6-0.5-1.1-1.1-1.1c-0.6,0-1.1,0.5-1.1,1.1C9.4,13.2,9.9,13.7,10.5,13.7
			z M51,32.5c-0.6,0-1.1,0.5-1.1,1.1c0,0.6,0.5,1.1,1.1,1.1c0.6,0,1.1-0.5,1.1-1.1C52.1,32.9,51.6,32.5,51,32.5z M51,35.8
			c-0.6,0-1.1,0.5-1.1,1.1c0,0.6,0.5,1.1,1.1,1.1c0.6,0,1.1-0.5,1.1-1.1C52.1,36.3,51.6,35.8,51,35.8z M25.8,28.7
			c2.5,0,4.3-1.7,4.3-4.2c0-2.6-1.8-4.2-4.3-4.2c-2.5,0-4.2,1.7-4.2,4.2C21.6,27,23.3,28.7,25.8,28.7z M25.8,21.6
			c1.7,0,2.8,1.3,2.8,2.9c0,1.7-1.1,3-2.8,3c-1.6,0-2.7-1.3-2.7-3C23,22.9,24.1,21.6,25.8,21.6z M14.9,22.4L14.9,22.4l4,6.1h1.8v-8
			h-1.4v5.9l0,0l0,0l-3.9-5.9h-1.9v8h1.4V22.4z M60,0H1.9C0.8,0,0,0.9,0,1.9v38.2C0,41.2,0.8,42,1.9,42H60c1.1,0,1.9-0.9,1.9-1.9
			V1.9C61.9,0.9,61.1,0,60,0z M13.6,3.8c0.9,0,1.6,0.7,1.6,1.6S14.5,7,13.6,7S12,6.3,12,5.4S12.7,3.8,13.6,3.8z M9.5,3.8
			c0.9,0,1.6,0.7,1.6,1.6S10.4,7,9.5,7C8.6,7,7.9,6.3,7.9,5.4S8.6,3.8,9.5,3.8z M5.4,3.8C6.3,3.8,7,4.6,7,5.4S6.3,7,5.4,7
			C4.6,7,3.8,6.3,3.8,5.4S4.6,3.8,5.4,3.8z M60,40.1H1.9V8.9H60V40.1z M10.5,17c0.6,0,1.1-0.5,1.1-1.1c0-0.6-0.5-1.1-1.1-1.1
			c-0.6,0-1.1,0.5-1.1,1.1C9.4,16.6,9.9,17,10.5,17z M32.3,21.9L32.3,21.9l2.4,6.6h1l2.4-6.6h0v6.6h1.4v-8h-2.1l-2.2,5.6l-2.1-5.6
			h-2.2v8h1.4V21.9z M46.3,27.2h-4.1V25h3.7v-1.3h-3.7v-2h3.9v-1.3h-5.3v8h5.5V27.2z M9.7,27.4c-0.6,0-1.2-0.3-1.6-0.8l-1.1,1
			c0.7,0.8,1.6,1.1,2.6,1.1c1.6,0,2.9-0.8,2.9-2.5c0-2.8-3.8-1.9-3.8-3.5c0-0.7,0.7-1,1.3-1c0.6,0,1.1,0.2,1.4,0.6l1-1.1
			c-0.6-0.6-1.5-0.8-2.3-0.8c-1.5,0-2.9,0.8-2.9,2.4c0,2.9,3.8,1.8,3.8,3.6C11.1,27.1,10.3,27.4,9.7,27.4z M54.4,24.5
			c0-2.7-2-4-4.1-4h-3.1v8h3C52.1,28.5,54.4,27.2,54.4,24.5z M48.6,27.2v-5.4h1.3c1.7,0,3,0.8,3,2.7c0,1.9-1.5,2.7-3.2,2.7H48.6z"/>
	</g>
</g>
</svg>
